<svg xmlns="http://www.w3.org/2000/svg" width="48" height="48" viewBox="0 0 24 24"><path fill="#25d366" d="M12 0a12 12 0 0 0-10.1 18.5L0 24l5.7-1.9A12 12 0 1 0 12 0m6.8 17.1c-.3.9-1.7 1.6-2.3 1.7c-.6.1-1.3.1-2.1-.1c-.5-.1-1.2-.4-2.1-.8c-3.7-1.6-6.1-5.4-6.3-5.6c-.2-.3-1.5-2-1.5-3.8s1-2.7 1.4-3c.4-.3.9-.4 1.2-.4h.9c.3 0 .7-.1 1 .8c.4 1 .8 2 .9 2.1c.1.2.1.4 0 .6c-.1.3-.2.4-.4.6l-.6.7c-.2.2-.3.4-.1.8c.2.4.9 1.6 1.9 2.6c1.3 1.2 2.4 1.6 2.8 1.8c.4.2.6.1.8-.1s1-1.2 1.3-1.6s.6-.3.9-.2l2.1 1c.3.1.7.3.8.5c.2.2.2 1 .1 1.3"></path></svg>
